<?xml version="1.0" standalone="no"?>
<!DOCTYPE svg PUBLIC "-//W3C//DTD SVG 20010904//EN"
 "http://www.w3.org/TR/2001/REC-SVG-20010904/DTD/svg10.dtd">
<svg version="1.0" xmlns="http://www.w3.org/2000/svg"
 width="1080.000000pt" height="1080.000000pt" viewBox="0 0 1080.000000 1080.000000"
 preserveAspectRatio="xMidYMid meet">

<g transform="translate(0.000000,1080.000000) scale(0.100000,-0.100000)"
fill="#000000" stroke="none">
<path d="M0 5400 l0 -5400 5400 0 5400 0 0 5400 0 5400 -5400 0 -5400 0 0
-5400z m5438 4581 c15 -10 77 -47 137 -81 61 -35 151 -86 200 -115 109 -63
737 -426 840 -485 45 -26 155 -90 195 -112 19 -11 150 -87 290 -168 140 -81
278 -160 305 -175 28 -15 62 -36 77 -46 14 -11 28 -19 31 -19 3 0 27 -13 54
-29 41 -25 624 -362 723 -419 19 -11 64 -36 100 -57 36 -21 84 -48 108 -62 23
-13 93 -54 155 -90 62 -36 128 -74 147 -85 19 -11 80 -46 135 -78 55 -32 116
-67 135 -78 19 -11 64 -36 100 -57 36 -21 85 -49 110 -62 25 -14 60 -36 78
-50 l32 -24 0 -2289 0 -2289 -32 -24 c-27 -20 -314 -188 -478 -279 -19 -11
-75 -44 -125 -73 -49 -29 -220 -128 -380 -220 -159 -92 -312 -180 -338 -196
-27 -16 -50 -29 -52 -29 -2 0 -39 -21 -82 -46 -68 -41 -422 -245 -507 -294
-17 -9 -66 -38 -109 -64 -43 -25 -80 -46 -82 -46 -2 0 -52 -29 -112 -64 -101
-59 -515 -299 -593 -343 -19 -11 -70 -41 -113 -67 -43 -25 -80 -46 -82 -46 -1
0 -65 -37 -141 -81 -77 -45 -157 -92 -180 -105 -22 -12 -134 -77 -249 -143
-114 -67 -209 -121 -211 -121 -2 0 -28 -16 -58 -35 -61 -39 -72 -41 -95 -22
-13 11 -136 83 -406 237 -34 19 -280 162 -560 324 -104 60 -233 134 -285 164
-52 30 -122 71 -155 90 -33 19 -76 43 -95 54 -45 26 -456 264 -575 333 -107
61 -156 90 -210 120 -22 13 -161 93 -309 179 -148 86 -271 156 -273 156 -3 0
-17 8 -31 19 -15 10 -47 29 -72 43 -25 14 -117 67 -205 118 -88 51 -176 101
-195 112 -19 11 -107 62 -195 113 -88 51 -176 102 -195 113 -19 11 -64 36
-100 57 -36 20 -73 44 -82 52 -17 15 -18 138 -18 2303 0 2166 1 2288 18 2302
9 8 94 59 187 113 94 53 211 121 260 150 50 29 106 62 125 73 109 61 216 123
490 282 168 97 339 196 380 220 41 23 91 51 110 62 19 11 150 87 290 168 140
81 271 157 290 168 19 11 63 36 98 56 34 20 90 52 125 72 34 20 78 45 97 56
19 11 150 87 290 168 140 81 271 157 290 168 19 11 64 36 100 57 36 21 81 46
100 57 19 11 80 46 135 78 55 32 116 67 135 78 19 11 85 49 147 85 113 66 155
90 248 143 28 15 52 32 53 36 6 14 33 9 60 -11z"/>
<path d="M5338 9340 c-26 -16 -73 -43 -105 -61 -32 -17 -62 -35 -68 -39 -5 -4
-26 -17 -45 -28 -19 -11 -64 -36 -100 -57 -36 -21 -85 -49 -109 -63 -25 -14
-68 -38 -95 -55 -28 -16 -64 -37 -81 -47 -16 -9 -149 -86 -295 -170 -146 -84
-281 -161 -300 -172 -19 -11 -107 -62 -195 -113 -88 -51 -176 -102 -195 -112
-19 -11 -58 -34 -86 -50 -27 -17 -70 -41 -95 -55 -24 -14 -73 -42 -109 -63
-36 -21 -81 -46 -100 -57 -19 -11 -64 -37 -100 -58 -36 -21 -81 -47 -100 -58
-45 -25 -259 -149 -375 -217 -49 -29 -108 -63 -130 -75 -60 -33 -367 -210
-394 -227 -29 -19 -22 -27 69 -79 36 -20 85 -48 109 -62 25 -14 68 -38 95 -55
28 -16 65 -37 81 -47 61 -34 363 -209 474 -274 62 -36 115 -66 116 -66 1 0
134 -77 295 -170 161 -94 294 -170 296 -170 2 0 44 -25 95 -55 50 -30 93 -55
94 -55 2 0 38 -20 80 -46 78 -45 450 -260 515 -297 19 -10 40 -23 45 -27 6 -4
33 -20 60 -35 60 -33 544 -311 636 -366 36 -21 72 -39 80 -39 8 0 56 25 108
55 51 30 95 55 96 55 2 0 39 21 82 46 43 26 92 55 108 64 219 125 440 253 481
277 27 17 70 41 95 55 42 24 130 75 564 326 110 63 242 139 293 169 216 124
284 164 410 236 72 42 192 111 265 153 72 42 146 85 162 94 78 45 164 95 206
119 219 125 289 167 289 176 0 6 -17 19 -37 30 -21 11 -99 55 -173 99 -74 43
-155 90 -180 104 -79 44 -293 168 -346 199 -27 17 -70 41 -95 55 -48 28 -329
189 -594 343 -93 54 -210 122 -260 150 -49 29 -175 101 -280 162 -104 60 -264
152 -355 205 -91 52 -210 121 -265 153 -55 32 -120 69 -145 83 -25 14 -76 44
-115 67 -178 106 -303 175 -316 174 -8 0 -35 -13 -61 -29z"/>
<path d="M1960 5241 l0 -1829 73 -42 c39 -24 89 -54 109 -67 21 -12 40 -23 43
-23 2 0 29 -16 59 -35 30 -19 57 -35 60 -35 2 0 112 -62 243 -138 131 -77 272
-158 313 -182 41 -24 118 -68 170 -98 52 -30 111 -63 130 -74 31 -18 288 -167
575 -333 94 -55 247 -143 325 -187 19 -11 150 -87 290 -168 140 -81 271 -157
290 -168 19 -11 64 -36 100 -57 36 -21 84 -48 107 -61 23 -13 92 -53 153 -89
61 -36 115 -65 121 -65 5 0 9 691 9 1828 l0 1829 -92 52 c-51 28 -111 62 -133
75 -44 26 -151 88 -205 118 -19 11 -107 62 -195 113 -88 51 -176 102 -195 113
-19 11 -91 52 -160 92 -130 76 -165 96 -227 131 -21 12 -110 63 -198 114 -88
51 -176 102 -195 113 -34 19 -136 77 -195 112 -16 9 -75 43 -130 75 -55 32
-199 115 -320 185 -121 70 -236 137 -255 148 -49 27 -159 91 -195 112 -16 10
-64 37 -105 60 -41 24 -139 80 -218 126 -79 46 -145 84 -147 84 -3 0 -5 -823
-5 -1829z"/>
<path d="M8740 7015 c-51 -30 -94 -55 -97 -55 -2 0 -29 -16 -59 -35 -30 -19
-56 -35 -58 -35 -2 0 -108 -61 -236 -135 -128 -74 -234 -135 -236 -135 -2 0
-28 -16 -58 -35 -30 -19 -57 -35 -60 -35 -3 0 -26 -13 -53 -29 -39 -23 -371
-216 -533 -309 -284 -162 -547 -314 -708 -408 -79 -46 -145 -84 -148 -84 -2 0
-33 -17 -67 -39 -57 -36 -177 -105 -237 -137 -14 -8 -135 -78 -270 -157 l-245
-142 -3 -1828 c-1 -1172 1 -1827 8 -1827 12 0 31 11 364 204 148 86 271 156
273 156 3 0 17 8 31 19 15 10 47 29 72 43 25 14 117 67 205 118 88 51 176 101
195 112 19 11 107 62 195 113 88 51 176 102 195 113 19 11 64 36 100 57 36 21
84 48 108 62 23 13 93 54 155 90 62 36 128 74 147 85 19 11 80 46 135 78 55
32 116 67 135 78 36 20 142 81 195 112 264 153 554 320 603 348 23 13 47 32
52 42 13 23 14 3636 1 3644 -4 3 -50 -19 -101 -49z"/>
</g>
</svg>
