<?xml version="1.0" standalone="no"?>
<!DOCTYPE svg PUBLIC "-//W3C//DTD SVG 20010904//EN"
 "http://www.w3.org/TR/2001/REC-SVG-20010904/DTD/svg10.dtd">
<svg version="1.0" xmlns="http://www.w3.org/2000/svg"
 width="200.000000pt" height="200.000000pt" viewBox="0 0 200.000000 200.000000"
 preserveAspectRatio="xMidYMid meet">
<metadata>
Created by potrace 1.14, written by Peter Selinger 2001-2017
</metadata>
<g transform="translate(0.000000,200.000000) scale(0.100000,-0.100000)"
fill="#000000" stroke="none">
<path d="M0 1000 l0 -1000 1000 0 1000 0 0 1000 0 1000 -1000 0 -1000 0 0
-1000z m1286 8 c153 -264 283 -487 287 -495 6 -10 -4 -13 -51 -13 l-59 0 -218
378 c-120 207 -224 385 -230 394 -9 14 -49 -49 -240 -378 l-228 -394 -64 0
c-51 0 -62 3 -56 13 4 8 134 231 287 495 154 265 283 482 286 482 3 0 132
-217 286 -482z"/>
</g>
</svg>
